<svg xmlns="http://www.w3.org/2000/svg" viewBox="0 0 476.0 272.0"><rect width="476.0" height="272.0" rx="15.41" fill="#ffffff"/><rect x="193.559" y="53.704" width="88.882" height="88.882" rx="9.599" fill="#151515"/><g transform="translate(209.033,77.115) scale(0.41664)"><g stroke="#ffffff" fill="none" stroke-linecap="round" stroke-linejoin="round"><path d="M18 88V12l52 36 52-36v76" stroke-width="9"/><path d="M42 88l28-40 28 40" stroke-width="9"/><path d="M53 73h34" stroke-width="7" stroke-linejoin="miter"/></g></g><text x="163.186 175.884 188.581 203.996 214.649 222.585 238.0 248.653 260.665 268.601 282.657 290.593 303.291" y="184.05" font-family="Optima,'Optima nova','Cinzel V',Georgia,serif" font-weight="400" font-size="12.24" fill="#0b0b0b" fill-opacity="1.0">ACME MERIDIAN</text><rect x="226.80" y="200.25" width="22.4" height="0.42" fill="#0b0b0b" fill-opacity="0.28"/><text x="182.718 188.521 194.827 200.208 205.675 212.733 218.536 224.506 230.141 234.348 238.555 242.762 249.821 256.126 262.097 267.478 273.53 280.588 284.542 290.593" y="215.79" font-family="'Helvetica Neue','Inter V',Helvetica,Arial,sans-serif" font-weight="300" font-size="4.53" fill="#0b0b0b" fill-opacity="0.45">SOFTWARE · WORLDWIDE</text><text x="127.874 132.342 135.453 139.562 142.457 147.661 150.556 154.739 159.064 163.744 166.855 170.964 173.859 178.327 182.937 185.833 189.942 192.837 197.02 201.414 204.525 209.278 214.173 219.377 223.845 228.312 233.065 237.459 240.571 245.181 249.506 254.401 257.297 261.764 265.947 270.272 274.882 279.207 283.886 286.998 289.893 294.646 297.757 303.292 307.686 312.582 317.785 320.681 325.434 330.329 333.44 336.551 341.231 345.698" y="229.39" font-family="'Helvetica Neue','Inter V',Helvetica,Arial,sans-serif" font-weight="300" font-size="3.85" fill="#0b0b0b" fill-opacity="0.32">A LIMITED LIABILITY COMPANY REGISTERED IN WYOMING, USA</text></svg>